<svg width="147" height="42" viewBox="0 0 147 42" fill="none" xmlns="http://www.w3.org/2000/svg">
<path d="M39.448 41H23.064L15.832 28.264V41H0.28V1.256H17.112L23.768 14.12V1.256H39.448V41ZM41.134 20.904C41.134 13.7787 42.7553 8.63733 45.998 5.48C49.2833 2.28 54.702 0.679996 62.254 0.679996C69.806 0.679996 75.182 2.25866 78.382 5.416C81.6247 8.53067 83.246 13.6507 83.246 20.776C83.246 27.8587 81.582 33.1067 78.254 36.52C74.926 39.9333 69.5287 41.64 62.062 41.64C54.638 41.64 49.2833 39.9547 45.998 36.584C42.7553 33.2133 41.134 27.9867 41.134 20.904ZM63.598 30.952V13.16H61.55V30.952H63.598ZM113.897 14.184H108.137V41H90.025V14.184H83.625L84.265 1.256H114.729L113.897 14.184ZM144.83 41H116.03V1.256H146.046L145.086 14.312H134.078V16.616H144.83L144.19 27.24H134.078V29.544H145.79L144.83 41Z" fill="black"/>
</svg>
