<svg width="92" height="27" viewBox="0 0 92 27" fill="none" xmlns="http://www.w3.org/2000/svg">
<path d="M25.28 26H15.04L10.52 18.04V26H0.8V1.16H11.32L15.48 9.2V1.16H25.28V26ZM26.3338 13.44C26.3338 8.98667 27.3471 5.77333 29.3738 3.8C31.4271 1.8 34.8138 0.799998 39.5338 0.799998C44.2538 0.799998 47.6138 1.78666 49.6137 3.76C51.6404 5.70667 52.6538 8.90667 52.6538 13.36C52.6538 17.7867 51.6138 21.0667 49.5338 23.2C47.4538 25.3333 44.0804 26.4 39.4138 26.4C34.7738 26.4 31.4271 25.3467 29.3738 23.24C27.3471 21.1333 26.3338 17.8667 26.3338 13.44ZM40.3738 19.72V8.6H39.0938V19.72H40.3738ZM71.8106 9.24H68.2106V26H56.8906V9.24H52.8906L53.2906 1.16H72.3306L71.8106 9.24ZM91.1438 26H73.1438V1.16H91.9038L91.3038 9.32H84.4238V10.76H91.1438L90.7438 17.4H84.4238V18.84H91.7438L91.1438 26Z" fill="black"/>
</svg>
